<svg version="1.1" xmlns="http://www.w3.org/2000/svg" xmlns:xlink="http://www.w3.org/1999/xlink" width="1064.37216" height="1357.89564" viewBox="0,0,1064.37216,1357.89564"><g transform="translate(292.18608,498.06871)"><g data-paper-data="{&quot;isPaintingLayer&quot;:true}" fill="#9966ff" fill-rule="nonzero" stroke="none" stroke-width="0" stroke-linecap="butt" stroke-linejoin="miter" stroke-miterlimit="10" stroke-dasharray="" stroke-dashoffset="0" style="mix-blend-mode: normal"><path d="M-284.38241,117.54691v-432.43243h58.55856v432.43243z"/><path d="M-72.6707,-403.47411v-94.5946h704.20421v94.5946z"/><path d="M-93.69172,-302.87351v-190.69069h25.52553v190.69069z"/><path d="M-287.38541,-313.38402v-183.18318h39.03904v183.18318z"/><path d="M-276.8749,-457.52816v-40.54055h207.2072v40.54055z"/><path d="M-126.63824,24.49245v-334.47685h61.74957v334.47685z"/><path d="M26.02042,-1.23654v-286.4494h62.6072v286.4494z"/><path d="M183.8002,-67.27427v-356.7753h61.74957v356.7753z"/><path d="M66.30448,97.24888v-126.79417h55.74614v126.79417z"/><path d="M122.05062,98.24888v-98.62779h354.2024v98.62779z"/><path d="M363.23768,394.98989v-508.57633h113.01534v508.57634z"/><path d="M182.1044,336.33386v-238.42196h191.25214v238.42197z"/><path d="M64.58922,335.81322v-134.64838h167.23842v134.64838z"/><path d="M-168.68694,255.19571v-96.05489h234.1338v96.05489z"/><path d="M-289.61318,501.33636v-387.65008h61.74957v387.65008z"/><path d="M-228.72125,254.33808v-93.48199h156.08919v93.48199z"/><path d="M-230.43651,565.65883v-208.4048h180.96055v208.4048z"/><path d="M-287.89792,856.39641v-354.20241h61.74957v354.20242z"/><path d="M-228.72125,859.24374v-152.07546h411.66381v152.07547z"/><path d="M49.15182,569.94701v-178.38765h175.81476v178.38766z"/><path d="M-292.18608,537.35695v-72.8988h71.18354v72.8988z"/><path d="M260.98716,622.2626v-60.89193h59.17667v60.89193z"/><path d="M173.5086,736.32779v-27.44425h74.61406v27.44425z"/><path d="M164.93227,859.82693v-35.16295h240.99485v35.16295z"/><path d="M357.89968,736.32779v-30.87478h285.59177v30.87478z"/><path d="M395.63553,845.24718v-108.91939h253.85935v108.91939z"/><path d="M360.47258,563.08593v-193.82504h112.34991v193.82504z"/><path d="M593.74874,559.65541v-160.37736h176.67238v160.37737z"/><path d="M593.74874,424.1494v-39.45111h174.95712v39.45111z"/><path d="M710.38682,846.96244v-288.16467h58.31904v288.16468z"/><path d="M628.05406,746.61939v-38.59348h105.48885v38.59348z"/><path d="M646.92198,847.82007v-116.63807h75.4717v116.63807z"/><path d="M643.71597,712.00499v-6.23441h68.57855v6.23441z"/><path d="M642.31323,714.65463v-8.88405h69.35786v8.88405z"/><path d="M710.63337,386.04402v-517.7453h55.32359v517.74531z"/><path d="M575.45591,330.72042v-250.52192h61.58664v250.52192z"/><path d="M337.94808,-211.52804v-135.69936h295.4071v135.69936z"/><path d="M630.22366,-403.59485v-76.20042h141.96242v76.20042z"/><path d="M711.12136,-107.14391v-329.85386h59.49896v329.85386z"/><path d="M591.60153,-17.89548v-136.22129h177.45303v136.22129z"/></g></g></svg>