<svg version="1.1" xmlns="http://www.w3.org/2000/svg" xmlns:xlink="http://www.w3.org/1999/xlink" width="182.85678" height="239.50497" viewBox="0,0,182.85678,239.50497"><defs><linearGradient x1="266.94177" y1="154.57627" x2="209.94177" y2="154.57627" gradientUnits="userSpaceOnUse" id="color-1"><stop offset="0" stop-color="#870000"/><stop offset="1" stop-color="#008888"/></linearGradient><linearGradient x1="266.94177" y1="97.71913" x2="209.94177" y2="97.71913" gradientUnits="userSpaceOnUse" id="color-2"><stop offset="0" stop-color="#870000"/><stop offset="1" stop-color="#008888"/></linearGradient><linearGradient x1="267.17844" y1="154.49363" x2="324.17844" y2="154.49363" gradientUnits="userSpaceOnUse" id="color-3"><stop offset="0" stop-color="#870000"/><stop offset="1" stop-color="#008888"/></linearGradient><linearGradient x1="267.17844" y1="97.63648" x2="324.17844" y2="97.63648" gradientUnits="userSpaceOnUse" id="color-4"><stop offset="0" stop-color="#870000"/><stop offset="1" stop-color="#008888"/></linearGradient><linearGradient x1="267.08757" y1="268.49565" x2="210.08757" y2="268.49565" gradientUnits="userSpaceOnUse" id="color-5"><stop offset="0" stop-color="#870000"/><stop offset="1" stop-color="#008888"/></linearGradient><linearGradient x1="267.08757" y1="211.63851" x2="210.08757" y2="211.63851" gradientUnits="userSpaceOnUse" id="color-6"><stop offset="0" stop-color="#870000"/><stop offset="1" stop-color="#008888"/></linearGradient><linearGradient x1="267.03264" y1="268.41301" x2="324.03264" y2="268.41301" gradientUnits="userSpaceOnUse" id="color-7"><stop offset="0" stop-color="#870000"/><stop offset="1" stop-color="#008888"/></linearGradient><linearGradient x1="267.03264" y1="211.55587" x2="324.03264" y2="211.55587" gradientUnits="userSpaceOnUse" id="color-8"><stop offset="0" stop-color="#870000"/><stop offset="1" stop-color="#008888"/></linearGradient><linearGradient x1="152.96746" y1="154.34783" x2="209.96746" y2="154.34783" gradientUnits="userSpaceOnUse" id="color-9"><stop offset="0" stop-color="#870000"/><stop offset="1" stop-color="#008888"/></linearGradient><linearGradient x1="152.96746" y1="97.49068" x2="209.96746" y2="97.49068" gradientUnits="userSpaceOnUse" id="color-10"><stop offset="0" stop-color="#870000"/><stop offset="1" stop-color="#008888"/></linearGradient><linearGradient x1="152.82166" y1="268.26721" x2="209.82166" y2="268.26721" gradientUnits="userSpaceOnUse" id="color-11"><stop offset="0" stop-color="#870000"/><stop offset="1" stop-color="#008888"/></linearGradient><linearGradient x1="152.82166" y1="211.41007" x2="209.82166" y2="211.41007" gradientUnits="userSpaceOnUse" id="color-12"><stop offset="0" stop-color="#870000"/><stop offset="1" stop-color="#008888"/></linearGradient></defs><g transform="translate(-147.07166,-63.24068)"><g data-paper-data="{&quot;isPaintingLayer&quot;:true}" fill="none" fill-rule="nonzero" stroke-width="11.5" stroke-linecap="butt" stroke-linejoin="miter" stroke-miterlimit="10" stroke-dasharray="" stroke-dashoffset="0" style="mix-blend-mode: normal"><path d="M209.94177,183.07627v-57h57v57z" data-paper-data="{&quot;index&quot;:null}" stroke="url(#color-1)"/><path d="M209.94177,126.21913v-57h57v57z" data-paper-data="{&quot;index&quot;:null}" stroke="url(#color-2)"/><path d="M267.17844,182.99363v-57h57v57z" data-paper-data="{&quot;index&quot;:null}" stroke="url(#color-3)"/><path d="M267.17844,126.13648v-57h57v57z" data-paper-data="{&quot;index&quot;:null}" stroke="url(#color-4)"/><path d="M210.08757,296.99565v-57h57v57z" data-paper-data="{&quot;index&quot;:null}" stroke="url(#color-5)"/><path d="M210.08757,240.13851v-57h57v57z" data-paper-data="{&quot;index&quot;:null}" stroke="url(#color-6)"/><path d="M267.03264,296.91301v-57h57v57z" data-paper-data="{&quot;index&quot;:null}" stroke="url(#color-7)"/><path d="M267.03264,240.05587v-57h57v57z" data-paper-data="{&quot;index&quot;:null}" stroke="url(#color-8)"/><path d="M152.96746,182.84783v-57h57v57z" data-paper-data="{&quot;index&quot;:null}" stroke="url(#color-9)"/><path d="M152.96746,125.99068v-57h57v57z" data-paper-data="{&quot;index&quot;:null}" stroke="url(#color-10)"/><path d="M152.82166,296.76721v-57h57v57z" data-paper-data="{&quot;index&quot;:null}" stroke="url(#color-11)"/><path d="M152.82166,239.91007v-57h57v57z" data-paper-data="{&quot;index&quot;:null}" stroke="url(#color-12)"/></g></g></svg>